<?xml version="1.0" encoding="utf-8" standalone="no"?>
<!DOCTYPE svg PUBLIC "-//W3C//DTD SVG 1.1//EN"
  "http://www.w3.org/Graphics/SVG/1.1/DTD/svg11.dtd">
<svg xmlns:xlink="http://www.w3.org/1999/xlink" width="576pt" height="360pt" viewBox="0 0 576 360" xmlns="http://www.w3.org/2000/svg" version="1.1">
 <metadata>
  <rdf:RDF xmlns:dc="http://purl.org/dc/elements/1.1/" xmlns:cc="http://creativecommons.org/ns#" xmlns:rdf="http://www.w3.org/1999/02/22-rdf-syntax-ns#">
   <cc:Work>
    <dc:type rdf:resource="http://purl.org/dc/dcmitype/StillImage"/>
    <dc:date>2025-08-28T16:13:06.505231</dc:date>
    <dc:format>image/svg+xml</dc:format>
    <dc:creator>
     <cc:Agent>
      <dc:title>Matplotlib v3.10.3, https://matplotlib.org/</dc:title>
     </cc:Agent>
    </dc:creator>
   </cc:Work>
  </rdf:RDF>
 </metadata>
 <defs>
  <style type="text/css">*{stroke-linejoin: round; stroke-linecap: butt}</style>
 </defs>
 <g id="figure_1">
  <g id="patch_1">
   <path d="M 0 360 
L 576 360 
L 576 0 
L 0 0 
z
" style="fill: #ffffff"/>
  </g>
  <g id="axes_1">
   <g id="patch_2">
    <path d="M 85.644 298.476 
L 557.856 298.476 
L 557.856 18.144 
L 85.644 18.144 
z
" style="fill: #ffffff"/>
   </g>
   <g id="matplotlib.axis_1">
    <g id="xtick_1">
     <g id="text_1">
      <!-- 0 -->
      <g style="fill: #262626" transform="translate(102.82626 318.999031) scale(0.154 -0.154)">
       <defs>
        <path id="ArialMT-30" d="M 266 2259 
Q 266 3072 433 3567 
Q 600 4063 929 4331 
Q 1259 4600 1759 4600 
Q 2128 4600 2406 4451 
Q 2684 4303 2865 4023 
Q 3047 3744 3150 3342 
Q 3253 2941 3253 2259 
Q 3253 1453 3087 958 
Q 2922 463 2592 192 
Q 2263 -78 1759 -78 
Q 1097 -78 719 397 
Q 266 969 266 2259 
z
M 844 2259 
Q 844 1131 1108 757 
Q 1372 384 1759 384 
Q 2147 384 2411 759 
Q 2675 1134 2675 2259 
Q 2675 3391 2411 3762 
Q 2147 4134 1753 4134 
Q 1366 4134 1134 3806 
Q 844 3388 844 2259 
z
" transform="scale(0.015625)"/>
       </defs>
       <use xlink:href="#ArialMT-30"/>
      </g>
     </g>
    </g>
    <g id="xtick_2">
     <g id="text_2">
      <!-- 50 -->
      <g style="fill: #262626" transform="translate(170.330899 318.999031) scale(0.154 -0.154)">
       <defs>
        <path id="ArialMT-35" d="M 266 1200 
L 856 1250 
Q 922 819 1161 601 
Q 1400 384 1738 384 
Q 2144 384 2425 690 
Q 2706 997 2706 1503 
Q 2706 1984 2436 2262 
Q 2166 2541 1728 2541 
Q 1456 2541 1237 2417 
Q 1019 2294 894 2097 
L 366 2166 
L 809 4519 
L 3088 4519 
L 3088 3981 
L 1259 3981 
L 1013 2750 
Q 1425 3038 1878 3038 
Q 2478 3038 2890 2622 
Q 3303 2206 3303 1553 
Q 3303 931 2941 478 
Q 2500 -78 1738 -78 
Q 1113 -78 717 272 
Q 322 622 266 1200 
z
" transform="scale(0.015625)"/>
       </defs>
       <use xlink:href="#ArialMT-35"/>
       <use xlink:href="#ArialMT-30" transform="translate(55.615234 0)"/>
      </g>
     </g>
    </g>
    <g id="xtick_3">
     <g id="text_3">
      <!-- 100 -->
      <g style="fill: #262626" transform="translate(237.835539 318.999031) scale(0.154 -0.154)">
       <defs>
        <path id="ArialMT-31" d="M 2384 0 
L 1822 0 
L 1822 3584 
Q 1619 3391 1289 3197 
Q 959 3003 697 2906 
L 697 3450 
Q 1169 3672 1522 3987 
Q 1875 4303 2022 4600 
L 2384 4600 
L 2384 0 
z
" transform="scale(0.015625)"/>
       </defs>
       <use xlink:href="#ArialMT-31"/>
       <use xlink:href="#ArialMT-30" transform="translate(55.615234 0)"/>
       <use xlink:href="#ArialMT-30" transform="translate(111.230469 0)"/>
      </g>
     </g>
    </g>
    <g id="xtick_4">
     <g id="text_4">
      <!-- 150 -->
      <g style="fill: #262626" transform="translate(309.6221 318.999031) scale(0.154 -0.154)">
       <use xlink:href="#ArialMT-31"/>
       <use xlink:href="#ArialMT-35" transform="translate(55.615234 0)"/>
       <use xlink:href="#ArialMT-30" transform="translate(111.230469 0)"/>
      </g>
     </g>
    </g>
    <g id="xtick_5">
     <g id="text_5">
      <!-- 200 -->
      <g style="fill: #262626" transform="translate(381.408661 318.999031) scale(0.154 -0.154)">
       <defs>
        <path id="ArialMT-32" d="M 3222 541 
L 3222 0 
L 194 0 
Q 188 203 259 391 
Q 375 700 629 1000 
Q 884 1300 1366 1694 
Q 2113 2306 2375 2664 
Q 2638 3022 2638 3341 
Q 2638 3675 2398 3904 
Q 2159 4134 1775 4134 
Q 1369 4134 1125 3890 
Q 881 3647 878 3216 
L 300 3275 
Q 359 3922 746 4261 
Q 1134 4600 1788 4600 
Q 2447 4600 2831 4234 
Q 3216 3869 3216 3328 
Q 3216 3053 3103 2787 
Q 2991 2522 2730 2228 
Q 2469 1934 1863 1422 
Q 1356 997 1212 845 
Q 1069 694 975 541 
L 3222 541 
z
" transform="scale(0.015625)"/>
       </defs>
       <use xlink:href="#ArialMT-32"/>
       <use xlink:href="#ArialMT-30" transform="translate(55.615234 0)"/>
       <use xlink:href="#ArialMT-30" transform="translate(111.230469 0)"/>
      </g>
     </g>
    </g>
    <g id="xtick_6">
     <g id="text_6">
      <!-- 250 -->
      <g style="fill: #262626" transform="translate(453.195223 318.999031) scale(0.154 -0.154)">
       <use xlink:href="#ArialMT-32"/>
       <use xlink:href="#ArialMT-35" transform="translate(55.615234 0)"/>
       <use xlink:href="#ArialMT-30" transform="translate(111.230469 0)"/>
      </g>
     </g>
    </g>
    <g id="xtick_7">
     <g id="text_7">
      <!-- 300 -->
      <g style="fill: #262626" transform="translate(524.981784 318.999031) scale(0.154 -0.154)">
       <defs>
        <path id="ArialMT-33" d="M 269 1209 
L 831 1284 
Q 928 806 1161 595 
Q 1394 384 1728 384 
Q 2125 384 2398 659 
Q 2672 934 2672 1341 
Q 2672 1728 2419 1979 
Q 2166 2231 1775 2231 
Q 1616 2231 1378 2169 
L 1441 2663 
Q 1497 2656 1531 2656 
Q 1891 2656 2178 2843 
Q 2466 3031 2466 3422 
Q 2466 3731 2256 3934 
Q 2047 4138 1716 4138 
Q 1388 4138 1169 3931 
Q 950 3725 888 3313 
L 325 3413 
Q 428 3978 793 4289 
Q 1159 4600 1703 4600 
Q 2078 4600 2393 4439 
Q 2709 4278 2876 4000 
Q 3044 3722 3044 3409 
Q 3044 3113 2884 2869 
Q 2725 2625 2413 2481 
Q 2819 2388 3044 2092 
Q 3269 1797 3269 1353 
Q 3269 753 2831 336 
Q 2394 -81 1725 -81 
Q 1122 -81 723 278 
Q 325 638 269 1209 
z
" transform="scale(0.015625)"/>
       </defs>
       <use xlink:href="#ArialMT-33"/>
       <use xlink:href="#ArialMT-30" transform="translate(55.615234 0)"/>
       <use xlink:href="#ArialMT-30" transform="translate(111.230469 0)"/>
      </g>
     </g>
    </g>
    <g id="text_8">
     <!-- Epoch -->
     <g style="fill: #262626" transform="translate(296.084063 338.084906) scale(0.168 -0.168)">
      <defs>
       <path id="Arial-BoldMT-45" d="M 466 0 
L 466 4581 
L 3863 4581 
L 3863 3806 
L 1391 3806 
L 1391 2791 
L 3691 2791 
L 3691 2019 
L 1391 2019 
L 1391 772 
L 3950 772 
L 3950 0 
L 466 0 
z
" transform="scale(0.015625)"/>
       <path id="Arial-BoldMT-70" d="M 434 3319 
L 1253 3319 
L 1253 2831 
Q 1413 3081 1684 3237 
Q 1956 3394 2288 3394 
Q 2866 3394 3269 2941 
Q 3672 2488 3672 1678 
Q 3672 847 3265 386 
Q 2859 -75 2281 -75 
Q 2006 -75 1782 34 
Q 1559 144 1313 409 
L 1313 -1263 
L 434 -1263 
L 434 3319 
z
M 1303 1716 
Q 1303 1156 1525 889 
Q 1747 622 2066 622 
Q 2372 622 2575 867 
Q 2778 1113 2778 1672 
Q 2778 2194 2568 2447 
Q 2359 2700 2050 2700 
Q 1728 2700 1515 2451 
Q 1303 2203 1303 1716 
z
" transform="scale(0.015625)"/>
       <path id="Arial-BoldMT-6f" d="M 256 1706 
Q 256 2144 472 2553 
Q 688 2963 1083 3178 
Q 1478 3394 1966 3394 
Q 2719 3394 3200 2905 
Q 3681 2416 3681 1669 
Q 3681 916 3195 420 
Q 2709 -75 1972 -75 
Q 1516 -75 1102 131 
Q 688 338 472 736 
Q 256 1134 256 1706 
z
M 1156 1659 
Q 1156 1166 1390 903 
Q 1625 641 1969 641 
Q 2313 641 2545 903 
Q 2778 1166 2778 1666 
Q 2778 2153 2545 2415 
Q 2313 2678 1969 2678 
Q 1625 2678 1390 2415 
Q 1156 2153 1156 1659 
z
" transform="scale(0.015625)"/>
       <path id="Arial-BoldMT-63" d="M 3353 2338 
L 2488 2181 
Q 2444 2441 2289 2572 
Q 2134 2703 1888 2703 
Q 1559 2703 1364 2476 
Q 1169 2250 1169 1719 
Q 1169 1128 1367 884 
Q 1566 641 1900 641 
Q 2150 641 2309 783 
Q 2469 925 2534 1272 
L 3397 1125 
Q 3263 531 2881 228 
Q 2500 -75 1859 -75 
Q 1131 -75 698 384 
Q 266 844 266 1656 
Q 266 2478 700 2936 
Q 1134 3394 1875 3394 
Q 2481 3394 2839 3133 
Q 3197 2872 3353 2338 
z
" transform="scale(0.015625)"/>
       <path id="Arial-BoldMT-68" d="M 1334 4581 
L 1334 2897 
Q 1759 3394 2350 3394 
Q 2653 3394 2897 3281 
Q 3141 3169 3264 2994 
Q 3388 2819 3433 2606 
Q 3478 2394 3478 1947 
L 3478 0 
L 2600 0 
L 2600 1753 
Q 2600 2275 2550 2415 
Q 2500 2556 2373 2639 
Q 2247 2722 2056 2722 
Q 1838 2722 1666 2615 
Q 1494 2509 1414 2295 
Q 1334 2081 1334 1663 
L 1334 0 
L 456 0 
L 456 4581 
L 1334 4581 
z
" transform="scale(0.015625)"/>
      </defs>
      <use xlink:href="#Arial-BoldMT-45"/>
      <use xlink:href="#Arial-BoldMT-70" transform="translate(66.699219 0)"/>
      <use xlink:href="#Arial-BoldMT-6f" transform="translate(127.783203 0)"/>
      <use xlink:href="#Arial-BoldMT-63" transform="translate(188.867188 0)"/>
      <use xlink:href="#Arial-BoldMT-68" transform="translate(244.482422 0)"/>
     </g>
    </g>
   </g>
   <g id="matplotlib.axis_2">
    <g id="ytick_1">
     <g id="text_9">
      <!-- 0.825 -->
      <g style="fill: #262626" transform="translate(37.610313 303.012433) scale(0.154 -0.154)">
       <defs>
        <path id="ArialMT-2e" d="M 581 0 
L 581 641 
L 1222 641 
L 1222 0 
L 581 0 
z
" transform="scale(0.015625)"/>
        <path id="ArialMT-38" d="M 1131 2484 
Q 781 2613 612 2850 
Q 444 3088 444 3419 
Q 444 3919 803 4259 
Q 1163 4600 1759 4600 
Q 2359 4600 2725 4251 
Q 3091 3903 3091 3403 
Q 3091 3084 2923 2848 
Q 2756 2613 2416 2484 
Q 2838 2347 3058 2040 
Q 3278 1734 3278 1309 
Q 3278 722 2862 322 
Q 2447 -78 1769 -78 
Q 1091 -78 675 323 
Q 259 725 259 1325 
Q 259 1772 486 2073 
Q 713 2375 1131 2484 
z
M 1019 3438 
Q 1019 3113 1228 2906 
Q 1438 2700 1772 2700 
Q 2097 2700 2305 2904 
Q 2513 3109 2513 3406 
Q 2513 3716 2298 3927 
Q 2084 4138 1766 4138 
Q 1444 4138 1231 3931 
Q 1019 3725 1019 3438 
z
M 838 1322 
Q 838 1081 952 856 
Q 1066 631 1291 507 
Q 1516 384 1775 384 
Q 2178 384 2440 643 
Q 2703 903 2703 1303 
Q 2703 1709 2433 1975 
Q 2163 2241 1756 2241 
Q 1359 2241 1098 1978 
Q 838 1716 838 1322 
z
" transform="scale(0.015625)"/>
       </defs>
       <use xlink:href="#ArialMT-30"/>
       <use xlink:href="#ArialMT-2e" transform="translate(55.615234 0)"/>
       <use xlink:href="#ArialMT-38" transform="translate(83.398438 0)"/>
       <use xlink:href="#ArialMT-32" transform="translate(139.013672 0)"/>
       <use xlink:href="#ArialMT-35" transform="translate(194.628906 0)"/>
      </g>
     </g>
    </g>
    <g id="ytick_2">
     <g id="text_10">
      <!-- 0.850 -->
      <g style="fill: #262626" transform="translate(37.610313 267.903615) scale(0.154 -0.154)">
       <use xlink:href="#ArialMT-30"/>
       <use xlink:href="#ArialMT-2e" transform="translate(55.615234 0)"/>
       <use xlink:href="#ArialMT-38" transform="translate(83.398438 0)"/>
       <use xlink:href="#ArialMT-35" transform="translate(139.013672 0)"/>
       <use xlink:href="#ArialMT-30" transform="translate(194.628906 0)"/>
      </g>
     </g>
    </g>
    <g id="ytick_3">
     <g id="text_11">
      <!-- 0.875 -->
      <g style="fill: #262626" transform="translate(37.610313 232.794797) scale(0.154 -0.154)">
       <defs>
        <path id="ArialMT-37" d="M 303 3981 
L 303 4522 
L 3269 4522 
L 3269 4084 
Q 2831 3619 2401 2847 
Q 1972 2075 1738 1259 
Q 1569 684 1522 0 
L 944 0 
Q 953 541 1156 1306 
Q 1359 2072 1739 2783 
Q 2119 3494 2547 3981 
L 303 3981 
z
" transform="scale(0.015625)"/>
       </defs>
       <use xlink:href="#ArialMT-30"/>
       <use xlink:href="#ArialMT-2e" transform="translate(55.615234 0)"/>
       <use xlink:href="#ArialMT-38" transform="translate(83.398438 0)"/>
       <use xlink:href="#ArialMT-37" transform="translate(139.013672 0)"/>
       <use xlink:href="#ArialMT-35" transform="translate(194.628906 0)"/>
      </g>
     </g>
    </g>
    <g id="ytick_4">
     <g id="text_12">
      <!-- 0.900 -->
      <g style="fill: #262626" transform="translate(37.610313 197.685978) scale(0.154 -0.154)">
       <defs>
        <path id="ArialMT-39" d="M 350 1059 
L 891 1109 
Q 959 728 1153 556 
Q 1347 384 1650 384 
Q 1909 384 2104 503 
Q 2300 622 2425 820 
Q 2550 1019 2634 1356 
Q 2719 1694 2719 2044 
Q 2719 2081 2716 2156 
Q 2547 1888 2255 1720 
Q 1963 1553 1622 1553 
Q 1053 1553 659 1965 
Q 266 2378 266 3053 
Q 266 3750 677 4175 
Q 1088 4600 1706 4600 
Q 2153 4600 2523 4359 
Q 2894 4119 3086 3673 
Q 3278 3228 3278 2384 
Q 3278 1506 3087 986 
Q 2897 466 2520 194 
Q 2144 -78 1638 -78 
Q 1100 -78 759 220 
Q 419 519 350 1059 
z
M 2653 3081 
Q 2653 3566 2395 3850 
Q 2138 4134 1775 4134 
Q 1400 4134 1122 3828 
Q 844 3522 844 3034 
Q 844 2597 1108 2323 
Q 1372 2050 1759 2050 
Q 2150 2050 2401 2323 
Q 2653 2597 2653 3081 
z
" transform="scale(0.015625)"/>
       </defs>
       <use xlink:href="#ArialMT-30"/>
       <use xlink:href="#ArialMT-2e" transform="translate(55.615234 0)"/>
       <use xlink:href="#ArialMT-39" transform="translate(83.398438 0)"/>
       <use xlink:href="#ArialMT-30" transform="translate(139.013672 0)"/>
       <use xlink:href="#ArialMT-30" transform="translate(194.628906 0)"/>
      </g>
     </g>
    </g>
    <g id="ytick_5">
     <g id="text_13">
      <!-- 0.925 -->
      <g style="fill: #262626" transform="translate(37.610313 162.57716) scale(0.154 -0.154)">
       <use xlink:href="#ArialMT-30"/>
       <use xlink:href="#ArialMT-2e" transform="translate(55.615234 0)"/>
       <use xlink:href="#ArialMT-39" transform="translate(83.398438 0)"/>
       <use xlink:href="#ArialMT-32" transform="translate(139.013672 0)"/>
       <use xlink:href="#ArialMT-35" transform="translate(194.628906 0)"/>
      </g>
     </g>
    </g>
    <g id="ytick_6">
     <g id="text_14">
      <!-- 0.950 -->
      <g style="fill: #262626" transform="translate(37.610313 127.468341) scale(0.154 -0.154)">
       <use xlink:href="#ArialMT-30"/>
       <use xlink:href="#ArialMT-2e" transform="translate(55.615234 0)"/>
       <use xlink:href="#ArialMT-39" transform="translate(83.398438 0)"/>
       <use xlink:href="#ArialMT-35" transform="translate(139.013672 0)"/>
       <use xlink:href="#ArialMT-30" transform="translate(194.628906 0)"/>
      </g>
     </g>
    </g>
    <g id="ytick_7">
     <g id="text_15">
      <!-- 0.975 -->
      <g style="fill: #262626" transform="translate(37.610313 92.359523) scale(0.154 -0.154)">
       <use xlink:href="#ArialMT-30"/>
       <use xlink:href="#ArialMT-2e" transform="translate(55.615234 0)"/>
       <use xlink:href="#ArialMT-39" transform="translate(83.398438 0)"/>
       <use xlink:href="#ArialMT-37" transform="translate(139.013672 0)"/>
       <use xlink:href="#ArialMT-35" transform="translate(194.628906 0)"/>
      </g>
     </g>
    </g>
    <g id="ytick_8">
     <g id="text_16">
      <!-- 1.000 -->
      <g style="fill: #262626" transform="translate(37.610313 57.250705) scale(0.154 -0.154)">
       <use xlink:href="#ArialMT-31"/>
       <use xlink:href="#ArialMT-2e" transform="translate(55.615234 0)"/>
       <use xlink:href="#ArialMT-30" transform="translate(83.398438 0)"/>
       <use xlink:href="#ArialMT-30" transform="translate(139.013672 0)"/>
       <use xlink:href="#ArialMT-30" transform="translate(194.628906 0)"/>
      </g>
     </g>
    </g>
    <g id="text_17">
     <!-- MSE Loss -->
     <g style="fill: #262626" transform="translate(30.294938 198.450187) rotate(-90) scale(0.168 -0.168)">
      <defs>
       <path id="Arial-BoldMT-4d" d="M 453 0 
L 453 4581 
L 1838 4581 
L 2669 1456 
L 3491 4581 
L 4878 4581 
L 4878 0 
L 4019 0 
L 4019 3606 
L 3109 0 
L 2219 0 
L 1313 3606 
L 1313 0 
L 453 0 
z
" transform="scale(0.015625)"/>
       <path id="Arial-BoldMT-53" d="M 231 1491 
L 1131 1578 
Q 1213 1125 1461 912 
Q 1709 700 2131 700 
Q 2578 700 2804 889 
Q 3031 1078 3031 1331 
Q 3031 1494 2936 1608 
Q 2841 1722 2603 1806 
Q 2441 1863 1863 2006 
Q 1119 2191 819 2459 
Q 397 2838 397 3381 
Q 397 3731 595 4036 
Q 794 4341 1167 4500 
Q 1541 4659 2069 4659 
Q 2931 4659 3367 4281 
Q 3803 3903 3825 3272 
L 2900 3231 
Q 2841 3584 2645 3739 
Q 2450 3894 2059 3894 
Q 1656 3894 1428 3728 
Q 1281 3622 1281 3444 
Q 1281 3281 1419 3166 
Q 1594 3019 2269 2859 
Q 2944 2700 3267 2529 
Q 3591 2359 3773 2064 
Q 3956 1769 3956 1334 
Q 3956 941 3737 597 
Q 3519 253 3119 86 
Q 2719 -81 2122 -81 
Q 1253 -81 787 320 
Q 322 722 231 1491 
z
" transform="scale(0.015625)"/>
       <path id="Arial-BoldMT-20" transform="scale(0.015625)"/>
       <path id="Arial-BoldMT-4c" d="M 491 0 
L 491 4544 
L 1416 4544 
L 1416 772 
L 3716 772 
L 3716 0 
L 491 0 
z
" transform="scale(0.015625)"/>
       <path id="Arial-BoldMT-73" d="M 150 947 
L 1031 1081 
Q 1088 825 1259 692 
Q 1431 559 1741 559 
Q 2081 559 2253 684 
Q 2369 772 2369 919 
Q 2369 1019 2306 1084 
Q 2241 1147 2013 1200 
Q 950 1434 666 1628 
Q 272 1897 272 2375 
Q 272 2806 612 3100 
Q 953 3394 1669 3394 
Q 2350 3394 2681 3172 
Q 3013 2950 3138 2516 
L 2309 2363 
Q 2256 2556 2107 2659 
Q 1959 2763 1684 2763 
Q 1338 2763 1188 2666 
Q 1088 2597 1088 2488 
Q 1088 2394 1175 2328 
Q 1294 2241 1995 2081 
Q 2697 1922 2975 1691 
Q 3250 1456 3250 1038 
Q 3250 581 2869 253 
Q 2488 -75 1741 -75 
Q 1063 -75 667 200 
Q 272 475 150 947 
z
" transform="scale(0.015625)"/>
      </defs>
      <use xlink:href="#Arial-BoldMT-4d"/>
      <use xlink:href="#Arial-BoldMT-53" transform="translate(83.300781 0)"/>
      <use xlink:href="#Arial-BoldMT-45" transform="translate(150 0)"/>
      <use xlink:href="#Arial-BoldMT-20" transform="translate(216.699219 0)"/>
      <use xlink:href="#Arial-BoldMT-4c" transform="translate(244.482422 0)"/>
      <use xlink:href="#Arial-BoldMT-6f" transform="translate(305.566406 0)"/>
      <use xlink:href="#Arial-BoldMT-73" transform="translate(366.650391 0)"/>
      <use xlink:href="#Arial-BoldMT-73" transform="translate(422.265625 0)"/>
     </g>
    </g>
   </g>
   <g id="line2d_1"/>
   <g id="line2d_2">
    <path d="M 107.108182 44.576272 
L 108.543913 49.245076 
L 109.979644 52.827419 
L 111.415375 51.934935 
L 112.851107 53.506452 
L 114.286838 44.750695 
L 115.722569 54.394718 
L 117.1583 49.554338 
L 118.594032 50.250196 
L 120.029763 47.321336 
L 121.465494 53.831116 
L 122.901225 48.692146 
L 124.336957 52.650077 
L 125.772688 55.692725 
L 127.208419 49.947097 
L 128.64415 48.017654 
L 130.079881 48.494401 
L 131.515613 50.380851 
L 132.951344 53.854198 
L 134.387075 55.972188 
L 135.822806 52.656815 
L 137.258538 51.562904 
L 138.694269 53.720299 
L 140.13 52.941646 
L 141.565731 54.539132 
L 143.001462 55.939354 
L 144.437194 45.643774 
L 145.872925 59.131407 
L 147.308656 61.504032 
L 148.744387 52.142652 
L 150.180119 52.785461 
L 151.61585 47.401578 
L 153.051581 55.342918 
L 154.487312 57.362973 
L 155.923043 53.396316 
L 157.358775 54.616246 
L 158.794506 53.668559 
L 160.230237 63.981173 
L 161.665968 53.476433 
L 163.1017 55.428623 
L 164.537431 60.426642 
L 165.973162 51.633657 
L 167.408893 61.600743 
L 168.844625 68.848036 
L 170.280356 57.849838 
L 171.716087 65.614684 
L 173.151818 64.531205 
L 174.587549 69.666397 
L 176.023281 62.003944 
L 177.459012 66.350449 
L 178.894743 62.986422 
L 180.330474 65.944642 
L 181.766206 69.854819 
L 183.201937 68.128416 
L 184.637668 71.786596 
L 186.073399 64.289368 
L 187.50913 63.708731 
L 188.944862 75.469877 
L 190.380593 72.603576 
L 191.816324 77.431264 
L 193.252055 75.963637 
L 194.687787 79.740251 
L 196.123518 71.089367 
L 197.559249 79.500936 
L 198.99498 76.711079 
L 200.430711 80.886415 
L 201.866443 82.131636 
L 203.302174 80.927316 
L 204.737905 86.334752 
L 206.173636 80.841654 
L 207.609368 88.37771 
L 209.045099 87.01323 
L 210.48083 87.764836 
L 211.916561 83.961521 
L 213.352292 87.20996 
L 214.788024 92.643784 
L 216.223755 89.775192 
L 217.659486 101.796945 
L 219.095217 90.465305 
L 220.530949 91.112865 
L 221.96668 101.127193 
L 223.402411 98.619091 
L 224.838142 96.895324 
L 226.273874 93.532469 
L 227.709605 101.482316 
L 229.145336 106.765197 
L 230.581067 107.392217 
L 232.016798 106.014794 
L 233.45253 120.387335 
L 234.888261 114.131477 
L 236.323992 107.093512 
L 237.759723 106.221202 
L 239.195455 116.151762 
L 240.631186 119.225088 
L 242.066917 116.902552 
L 243.502648 116.451534 
L 244.938379 116.296312 
L 246.374111 122.963856 
L 247.809842 123.949912 
L 249.245573 127.004845 
L 250.681304 120.462587 
L 252.117036 126.415764 
L 253.552767 127.822139 
L 254.988498 126.639228 
L 256.424229 123.491141 
L 257.85996 132.550343 
L 259.295692 127.441518 
L 260.731423 128.844911 
L 262.167154 133.366099 
L 263.602885 129.02695 
L 265.038617 131.990831 
L 266.474348 136.366988 
L 267.910079 142.877281 
L 269.34581 136.842679 
L 270.781542 138.361649 
L 272.217273 135.803177 
L 273.653004 135.73685 
L 275.088735 147.331369 
L 276.524466 138.290467 
L 277.960198 143.164236 
L 279.395929 140.155153 
L 280.83166 145.288933 
L 282.267391 142.55901 
L 283.703123 144.223262 
L 285.138854 149.131434 
L 286.574585 155.870851 
L 288.010316 146.611696 
L 289.446047 156.042312 
L 290.881779 148.384599 
L 292.31751 154.702096 
L 293.753241 147.385903 
L 295.188972 151.639128 
L 296.624704 156.403388 
L 298.060435 159.358051 
L 299.496166 158.40825 
L 300.931897 152.990519 
L 302.367628 157.488238 
L 303.80336 154.245302 
L 305.239091 163.166734 
L 306.674822 163.158908 
L 308.110553 160.814346 
L 309.546285 169.888384 
L 310.982016 160.313669 
L 312.417747 168.050306 
L 313.853478 161.617389 
L 315.289209 167.357807 
L 316.724941 166.478371 
L 318.160672 167.669277 
L 319.596403 165.939818 
L 321.032134 163.588309 
L 323.903597 169.224 
L 325.339328 173.499951 
L 326.775059 173.94626 
L 328.210791 170.139785 
L 329.646522 175.806866 
L 331.082253 170.988354 
L 332.517984 174.4662 
L 333.953715 171.723815 
L 335.389447 178.043373 
L 336.825178 175.256028 
L 338.260909 174.206366 
L 339.69664 183.838838 
L 341.132372 180.989237 
L 342.568103 185.673966 
L 344.003834 182.235733 
L 345.439565 174.744239 
L 346.875296 180.480179 
L 348.311028 182.82654 
L 349.746759 183.856375 
L 351.18249 180.346145 
L 352.618221 184.651592 
L 354.053953 187.624921 
L 355.489684 181.553865 
L 356.925415 186.629061 
L 358.361146 194.263598 
L 359.796877 189.401506 
L 362.66834 184.019392 
L 364.104071 190.040319 
L 365.539802 187.07288 
L 366.975534 190.347373 
L 368.411265 195.021921 
L 369.846996 191.308914 
L 371.282727 195.44946 
L 372.718458 190.754843 
L 374.15419 190.189703 
L 375.589921 188.207954 
L 377.025652 196.973065 
L 378.461383 194.969553 
L 379.897115 201.653274 
L 381.332846 199.772234 
L 382.768577 196.452498 
L 384.204308 200.531499 
L 385.64004 205.923281 
L 387.075771 193.045739 
L 388.511502 203.272126 
L 389.947233 200.004696 
L 391.382964 202.73082 
L 392.818696 203.595764 
L 394.254427 209.329653 
L 395.690158 207.723106 
L 397.125889 201.096493 
L 398.561621 200.897053 
L 399.997352 204.950399 
L 401.433083 203.659454 
L 402.868814 207.586393 
L 404.304545 209.394326 
L 405.740277 205.485468 
L 407.176008 209.397947 
L 408.611739 206.417848 
L 410.04747 208.574636 
L 411.483202 219.110421 
L 412.918933 205.394856 
L 414.354664 213.116531 
L 415.790395 198.799508 
L 417.226126 214.064103 
L 418.661858 209.459858 
L 420.097589 211.855061 
L 422.969051 218.937568 
L 424.404783 212.311447 
L 425.840514 213.271115 
L 427.276245 209.188253 
L 428.711976 212.53558 
L 430.147708 210.337368 
L 431.583439 210.942039 
L 433.01917 213.466223 
L 434.454901 206.363397 
L 435.890632 213.842816 
L 437.326364 218.332207 
L 438.762095 210.083456 
L 440.197826 220.845383 
L 441.633557 220.735645 
L 443.069289 214.220958 
L 444.50502 223.158472 
L 445.940751 218.674606 
L 447.376482 217.763948 
L 448.812213 217.776221 
L 450.247945 225.64661 
L 451.683676 221.072216 
L 453.119407 223.229245 
L 454.555138 222.058806 
L 455.99087 223.366073 
L 457.426601 223.21265 
L 458.862332 224.845617 
L 460.298063 226.81842 
L 461.733794 222.646097 
L 463.169526 220.448052 
L 464.605257 229.684595 
L 466.040988 215.676039 
L 467.476719 227.474549 
L 468.912451 231.767126 
L 470.348182 231.092843 
L 471.783913 233.406528 
L 473.219644 231.917912 
L 474.655375 225.497226 
L 476.091107 224.528539 
L 477.526838 218.47141 
L 478.962569 232.363531 
L 480.3983 224.584999 
L 481.834032 231.464288 
L 483.269763 234.870064 
L 484.705494 226.784027 
L 486.141225 230.305066 
L 487.576957 233.312903 
L 489.012688 227.687141 
L 490.448419 229.391478 
L 491.88415 229.325633 
L 493.319881 236.000805 
L 494.755613 234.32248 
L 496.191344 239.17663 
L 497.627075 231.143548 
L 499.062806 238.696534 
L 500.498538 236.483464 
L 501.934269 230.110962 
L 503.37 234.276704 
L 504.805731 240.37194 
L 506.241462 233.750946 
L 507.677194 243.895532 
L 510.548656 237.392553 
L 511.984387 236.930496 
L 513.420119 235.116065 
L 514.85585 234.197528 
L 516.291581 232.729933 
L 517.727312 234.66016 
L 519.163043 237.442975 
L 520.598775 239.818477 
L 522.034506 250.115082 
L 523.470237 238.343954 
L 524.905968 243.512211 
L 526.3417 244.191547 
L 527.777431 235.254431 
L 529.213162 230.962701 
L 530.648893 244.79468 
L 532.084625 244.812991 
L 533.520356 240.817654 
L 534.956087 240.132573 
L 536.391818 244.504576 
L 536.391818 244.504576 
" clip-path="url(#p8f960f8a4f)" style="fill: none; stroke: #dd8452; stroke-opacity: 0.4; stroke-width: 1.5; stroke-linecap: round"/>
   </g>
   <g id="line2d_3">
    <path d="M 107.108182 57.692523 
L 108.543913 64.244439 
L 109.979644 66.703971 
L 111.415375 49.144974 
L 112.851107 62.296099 
L 114.286838 30.886364 
L 115.722569 38.531228 
L 117.1583 57.227537 
L 118.594032 47.703725 
L 120.029763 53.562639 
L 121.465494 53.570591 
L 122.901225 63.427301 
L 124.336957 67.96927 
L 125.772688 54.048636 
L 127.208419 58.104691 
L 128.64415 50.509716 
L 130.079881 56.739782 
L 131.515613 52.086317 
L 132.951344 51.644099 
L 134.387075 55.960229 
L 135.822806 48.239778 
L 137.258538 45.920621 
L 138.694269 44.561404 
L 140.13 76.584537 
L 141.565731 39.606012 
L 143.001462 58.277377 
L 144.437194 59.173784 
L 145.872925 56.118935 
L 147.308656 54.282594 
L 148.744387 45.746513 
L 150.180119 35.479141 
L 151.61585 69.967331 
L 153.051581 64.477811 
L 154.487312 41.339897 
L 155.923043 50.807542 
L 157.358775 62.211807 
L 158.794506 49.07667 
L 160.230237 44.281491 
L 161.665968 51.796862 
L 163.1017 88.835153 
L 164.537431 45.693778 
L 165.973162 75.243065 
L 167.408893 60.110537 
L 168.844625 60.012936 
L 170.280356 64.681384 
L 171.716087 59.519405 
L 173.151818 86.227964 
L 174.587549 58.887342 
L 176.023281 51.460113 
L 177.459012 49.77595 
L 178.894743 67.644742 
L 180.330474 77.645677 
L 181.766206 84.231242 
L 183.201937 89.803714 
L 184.637668 64.336097 
L 186.073399 83.965978 
L 187.50913 73.110656 
L 188.944862 72.433894 
L 190.380593 72.82706 
L 191.816324 68.090308 
L 193.252055 69.277342 
L 194.687787 62.476402 
L 196.123518 85.626034 
L 197.559249 69.218999 
L 201.866443 104.742966 
L 203.302174 90.614323 
L 204.737905 120.483953 
L 206.173636 95.296666 
L 207.609368 88.548293 
L 209.045099 85.165568 
L 210.48083 91.805626 
L 211.916561 112.201752 
L 213.352292 89.068609 
L 214.788024 95.847786 
L 216.223755 115.184194 
L 217.659486 80.503649 
L 219.095217 103.98844 
L 220.530949 94.731651 
L 221.96668 107.927893 
L 223.402411 94.887511 
L 224.838142 93.987505 
L 226.273874 115.177247 
L 227.709605 108.051862 
L 229.145336 108.491569 
L 230.581067 115.687518 
L 232.016798 94.625093 
L 233.45253 119.175964 
L 234.888261 116.248683 
L 236.323992 121.676093 
L 237.759723 125.215431 
L 239.195455 134.461172 
L 240.631186 129.806033 
L 242.066917 120.429125 
L 243.502648 118.871944 
L 244.938379 116.760545 
L 246.374111 120.418997 
L 247.809842 125.069699 
L 249.245573 131.556073 
L 250.681304 152.890207 
L 252.117036 124.692018 
L 253.552767 148.090425 
L 254.988498 141.370428 
L 256.424229 132.338054 
L 257.85996 141.279858 
L 259.295692 143.85097 
L 260.731423 137.191827 
L 262.167154 139.264386 
L 263.602885 148.148684 
L 265.038617 141.22637 
L 266.474348 150.655845 
L 267.910079 146.362734 
L 269.34581 135.344102 
L 270.781542 145.420121 
L 272.217273 150.800488 
L 273.653004 152.488168 
L 275.088735 152.536215 
L 276.524466 148.078455 
L 277.960198 161.341997 
L 279.395929 146.161003 
L 280.83166 170.86246 
L 282.267391 159.427977 
L 283.703123 151.374879 
L 285.138854 167.977032 
L 286.574585 138.477969 
L 288.010316 177.834077 
L 289.446047 175.656048 
L 290.881779 172.400054 
L 292.31751 159.158109 
L 293.753241 168.336549 
L 295.188972 143.515979 
L 296.624704 160.487694 
L 298.060435 174.800657 
L 299.496166 170.663993 
L 300.931897 158.540777 
L 302.367628 154.155339 
L 303.80336 154.529588 
L 305.239091 181.961366 
L 306.674822 178.75208 
L 308.110553 165.491552 
L 309.546285 181.218392 
L 310.982016 179.382804 
L 312.417747 189.046991 
L 313.853478 167.155877 
L 315.289209 169.17771 
L 316.724941 181.920685 
L 318.160672 183.445556 
L 319.596403 170.742342 
L 321.032134 175.940063 
L 322.467866 172.864204 
L 323.903597 152.905358 
L 325.339328 195.151665 
L 326.775059 196.364062 
L 328.210791 176.382616 
L 329.646522 198.894493 
L 331.082253 189.358712 
L 332.517984 188.959267 
L 333.953715 197.664183 
L 335.389447 163.96802 
L 336.825178 196.508204 
L 338.260909 210.732858 
L 339.69664 185.631956 
L 341.132372 195.901922 
L 342.568103 181.790104 
L 344.003834 196.538338 
L 345.439565 206.123171 
L 346.875296 209.269175 
L 348.311028 185.665857 
L 349.746759 190.128137 
L 351.18249 206.201687 
L 352.618221 196.515738 
L 354.053953 203.369999 
L 355.489684 198.208188 
L 356.925415 199.346673 
L 358.361146 186.309723 
L 359.796877 177.650259 
L 361.232609 227.653429 
L 362.66834 188.679019 
L 364.104071 193.124726 
L 365.539802 202.01865 
L 366.975534 217.192194 
L 368.411265 196.828463 
L 369.846996 212.123632 
L 371.282727 188.163307 
L 372.718458 222.000096 
L 374.15419 230.212989 
L 375.589921 213.035441 
L 377.025652 207.170584 
L 378.461383 226.375825 
L 379.897115 207.312884 
L 381.332846 202.496946 
L 382.768577 214.116587 
L 384.204308 206.262458 
L 385.64004 195.682612 
L 387.075771 214.513772 
L 388.511502 204.886834 
L 389.947233 222.328642 
L 391.382964 210.561763 
L 392.818696 229.564184 
L 394.254427 230.900885 
L 395.690158 228.574027 
L 397.125889 189.655617 
L 399.997352 225.684665 
L 401.433083 218.935203 
L 402.868814 224.329131 
L 404.304545 216.73064 
L 405.740277 217.032651 
L 407.176008 231.785908 
L 408.611739 236.951904 
L 410.04747 210.361622 
L 411.483202 244.749364 
L 412.918933 217.886619 
L 414.354664 221.040408 
L 415.790395 214.351047 
L 418.661858 239.462496 
L 420.097589 210.727584 
L 421.53332 214.190081 
L 422.969051 209.724703 
L 424.404783 219.193771 
L 425.840514 223.22756 
L 427.276245 236.939097 
L 428.711976 210.369155 
L 430.147708 226.287097 
L 431.583439 225.403245 
L 433.01917 231.895562 
L 434.454901 225.681149 
L 435.890632 227.06958 
L 437.326364 230.067341 
L 438.762095 237.323893 
L 440.197826 215.95276 
L 441.633557 228.190402 
L 443.069289 228.316547 
L 444.50502 235.283895 
L 445.940751 230.746698 
L 447.376482 246.475883 
L 448.812213 254.402584 
L 450.247945 236.415767 
L 451.683676 270.850468 
L 453.119407 247.555689 
L 454.555138 242.775661 
L 455.99087 263.863784 
L 457.426601 235.882477 
L 458.862332 231.087884 
L 460.298063 246.301104 
L 461.733794 251.633592 
L 463.169526 240.270258 
L 464.605257 248.228266 
L 466.040988 221.858968 
L 467.476719 214.099762 
L 468.912451 249.393118 
L 470.348182 230.02599 
L 471.783913 240.662839 
L 473.219644 241.865526 
L 474.655375 241.869628 
L 476.091107 253.505759 
L 477.526838 237.87878 
L 478.962569 233.696747 
L 480.3983 257.695493 
L 481.834032 261.52437 
L 483.269763 226.928703 
L 486.141225 248.298579 
L 487.576957 257.989635 
L 489.012688 277.790947 
L 490.448419 238.894216 
L 491.88415 264.491662 
L 494.755613 236.463647 
L 496.191344 239.443662 
L 497.627075 244.285716 
L 499.062806 257.928279 
L 500.498538 237.863964 
L 501.934269 236.140207 
L 503.37 258.418628 
L 504.805731 249.371439 
L 506.241462 247.583982 
L 507.677194 237.908663 
L 509.112925 253.61374 
L 510.548656 264.48597 
L 511.984387 254.157075 
L 513.420119 275.646735 
L 514.85585 264.236359 
L 516.291581 259.04433 
L 517.727312 212.451173 
L 519.163043 264.955226 
L 520.598775 248.337168 
L 522.034506 216.312026 
L 523.470237 282.439221 
L 524.905968 231.870283 
L 526.3417 285.733636 
L 527.777431 263.259678 
L 529.213162 258.878509 
L 530.648893 274.536878 
L 532.084625 255.050301 
L 533.520356 252.878467 
L 534.956087 252.645011 
L 536.391818 260.318335 
L 536.391818 260.318335 
" clip-path="url(#p8f960f8a4f)" style="fill: none; stroke: #55a868; stroke-opacity: 0.4; stroke-width: 1.5; stroke-linecap: round"/>
   </g>
   <g id="line2d_4">
    <path d="M 107.108182 48.521033 
L 108.543913 49.143267 
L 109.979644 49.972814 
L 111.415375 50.548002 
L 112.851107 50.709149 
L 118.594032 50.308039 
L 120.029763 50.470883 
L 124.336957 51.440335 
L 125.772688 51.334294 
L 128.64415 50.668471 
L 130.079881 50.795748 
L 131.515613 51.399953 
L 132.951344 52.191892 
L 134.387075 52.806836 
L 135.822806 53.102216 
L 141.565731 53.551848 
L 143.001462 53.823304 
L 145.872925 54.643743 
L 147.308656 54.681694 
L 148.744387 54.246844 
L 150.180119 53.674495 
L 151.61585 53.440878 
L 153.051581 53.706308 
L 155.923043 54.902854 
L 158.794506 56.125087 
L 160.230237 56.59035 
L 163.1017 57.201086 
L 164.537431 57.814173 
L 165.973162 58.894734 
L 170.280356 63.02107 
L 171.716087 63.993389 
L 173.151818 64.687738 
L 174.587549 65.084934 
L 177.459012 65.452984 
L 178.894743 65.889576 
L 183.201937 67.890613 
L 184.637668 68.247913 
L 186.073399 68.755474 
L 187.50913 69.790109 
L 188.944862 71.385132 
L 190.380593 73.174106 
L 191.816324 74.696311 
L 193.252055 75.721276 
L 197.559249 77.639535 
L 198.99498 78.684787 
L 204.737905 83.511301 
L 207.609368 85.470895 
L 211.916561 87.776683 
L 213.352292 89.033316 
L 216.223755 92.19616 
L 217.659486 93.506479 
L 220.530949 95.438921 
L 224.838142 98.213112 
L 226.273874 99.678875 
L 227.709605 101.792167 
L 230.581067 107.059964 
L 232.016798 109.329214 
L 233.45253 110.832989 
L 234.888261 111.55368 
L 236.323992 111.960411 
L 237.759723 112.676053 
L 239.195455 113.915046 
L 242.066917 116.773433 
L 244.938379 119.498282 
L 247.809842 122.51356 
L 249.245573 123.689794 
L 250.681304 124.587889 
L 259.295692 129.102944 
L 260.731423 129.991828 
L 262.167154 131.022485 
L 263.602885 132.325429 
L 266.474348 135.555838 
L 267.910079 136.866704 
L 269.34581 137.651525 
L 272.217273 138.608268 
L 273.653004 139.378318 
L 276.524466 141.146356 
L 279.395929 142.621198 
L 280.83166 143.58415 
L 282.267391 144.89251 
L 286.574585 149.744545 
L 288.010316 150.746023 
L 289.446047 151.266735 
L 292.31751 151.789035 
L 293.753241 152.399015 
L 295.188972 153.443082 
L 296.624704 154.691748 
L 298.060435 155.740146 
L 299.496166 156.386391 
L 300.931897 156.839334 
L 302.367628 157.517119 
L 303.80336 158.666661 
L 306.674822 161.733126 
L 308.110553 163.02194 
L 309.546285 163.918646 
L 310.982016 164.479281 
L 316.724941 165.996659 
L 319.596403 166.444535 
L 321.032134 166.97775 
L 322.467866 167.990446 
L 325.339328 170.74231 
L 326.775059 171.813287 
L 328.210791 172.496815 
L 332.517984 173.793847 
L 333.953715 174.505775 
L 335.389447 175.47476 
L 336.825178 176.714772 
L 339.69664 179.626509 
L 341.132372 180.69879 
L 342.568103 181.13083 
L 345.439565 180.88103 
L 346.875296 181.040087 
L 348.311028 181.587741 
L 351.18249 183.181931 
L 354.053953 185.027034 
L 356.925415 187.167409 
L 358.361146 187.918897 
L 359.796877 188.171108 
L 362.66834 188.087546 
L 364.104071 188.516692 
L 365.539802 189.401726 
L 368.411265 191.467534 
L 369.846996 192.031334 
L 371.282727 192.156217 
L 372.718458 192.104055 
L 374.15419 192.316764 
L 375.589921 193.133284 
L 377.025652 194.538554 
L 378.461383 196.176181 
L 379.897115 197.625812 
L 381.332846 198.679377 
L 382.768577 199.371848 
L 384.204308 199.817531 
L 387.075771 200.435082 
L 388.511502 200.969858 
L 389.947233 201.844745 
L 392.818696 204.00166 
L 394.254427 204.602505 
L 395.690158 204.622083 
L 397.125889 204.315931 
L 398.561621 204.1639 
L 399.997352 204.487975 
L 401.433083 205.245343 
L 404.304545 206.962854 
L 410.04747 209.647169 
L 411.483202 209.911477 
L 412.918933 209.696575 
L 414.354664 209.312424 
L 415.790395 209.276111 
L 417.226126 209.893515 
L 418.661858 211.059985 
L 420.097589 212.381413 
L 421.53332 213.39618 
L 422.969051 213.773144 
L 424.404783 213.476429 
L 427.276245 212.057543 
L 428.711976 211.554077 
L 430.147708 211.312949 
L 431.583439 211.306102 
L 433.01917 211.56659 
L 434.454901 212.183301 
L 435.890632 213.177348 
L 440.197826 216.949341 
L 441.633557 217.895292 
L 443.069289 218.548371 
L 447.376482 219.808234 
L 450.247945 221.260168 
L 451.683676 221.954532 
L 454.555138 222.900197 
L 457.426601 223.704797 
L 458.862332 223.976101 
L 460.298063 224.036137 
L 463.169526 223.932105 
L 464.605257 224.291218 
L 466.040988 225.241413 
L 468.912451 228.356755 
L 470.348182 229.479985 
L 471.783913 229.645071 
L 473.219644 228.850113 
L 474.655375 227.586538 
L 476.091107 226.582985 
L 477.526838 226.380985 
L 478.962569 227.034557 
L 481.834032 229.252752 
L 483.269763 229.978013 
L 484.705494 230.289292 
L 489.012688 230.486821 
L 490.448419 231.016045 
L 491.88415 231.979586 
L 494.755613 234.27099 
L 496.191344 234.983702 
L 497.627075 235.271858 
L 501.934269 235.327734 
L 503.37 235.895291 
L 506.241462 237.821434 
L 507.677194 238.458128 
L 509.112925 238.46749 
L 510.548656 237.85463 
L 513.420119 235.969188 
L 514.85585 235.47257 
L 516.291581 235.687267 
L 517.727312 236.709549 
L 520.598775 240.051118 
L 522.034506 241.281436 
L 523.470237 241.666816 
L 524.905968 241.238562 
L 526.3417 240.38774 
L 527.777431 239.708011 
L 529.213162 239.670994 
L 530.648893 240.282112 
L 532.084625 241.126743 
L 533.520356 241.804512 
L 534.956087 242.205513 
L 536.391818 242.386374 
L 536.391818 242.386374 
" clip-path="url(#p8f960f8a4f)" style="fill: none; stroke: #c44e52; stroke-width: 2; stroke-linecap: round"/>
   </g>
   <g id="line2d_5">
    <path d="M 107.108182 60.346722 
L 108.543913 59.542407 
L 109.979644 57.651348 
L 111.415375 54.656147 
L 112.851107 51.25957 
L 114.286838 48.678667 
L 115.722569 47.85843 
L 117.1583 48.855886 
L 118.594032 51.024992 
L 121.465494 56.119641 
L 122.901225 57.903334 
L 124.336957 58.511873 
L 125.772688 57.920136 
L 130.079881 54.156738 
L 132.951344 52.483292 
L 134.387075 51.763439 
L 135.822806 51.400191 
L 137.258538 51.729215 
L 138.694269 52.714684 
L 140.13 53.875052 
L 141.565731 54.71316 
L 143.001462 55.014579 
L 144.437194 54.698548 
L 145.872925 53.771237 
L 147.308656 52.625299 
L 148.744387 52.025213 
L 150.180119 52.407675 
L 151.61585 53.316114 
L 153.051581 53.872754 
L 154.487312 53.744468 
L 155.923043 53.323497 
L 157.358775 53.206173 
L 158.794506 53.892945 
L 160.230237 55.692575 
L 163.1017 61.02377 
L 164.537431 62.784935 
L 165.973162 63.493436 
L 168.844625 63.94832 
L 170.280356 64.500061 
L 171.716087 64.854393 
L 173.151818 64.368173 
L 174.587549 63.183953 
L 176.023281 62.579355 
L 177.459012 64.002402 
L 178.894743 67.664555 
L 180.330474 72.224228 
L 181.766206 75.83918 
L 183.201937 77.480886 
L 184.637668 77.335838 
L 186.073399 76.19588 
L 190.380593 71.869005 
L 191.816324 71.105867 
L 193.252055 71.318478 
L 194.687787 72.787501 
L 196.123518 75.564771 
L 197.559249 79.556681 
L 201.866443 94.558895 
L 203.302174 97.585822 
L 204.737905 98.360787 
L 206.173636 97.275682 
L 207.609368 95.643395 
L 209.045099 94.848249 
L 210.48083 95.343133 
L 213.352292 97.626568 
L 214.788024 98.176826 
L 216.223755 98.26063 
L 217.659486 98.218163 
L 219.095217 98.412153 
L 220.530949 98.983563 
L 221.96668 99.908989 
L 223.402411 101.253823 
L 224.838142 103.109833 
L 226.273874 105.250628 
L 227.709605 107.154713 
L 229.145336 108.533018 
L 230.581067 109.712589 
L 232.016798 111.391279 
L 233.45253 114.024215 
L 236.323992 120.981195 
L 237.759723 123.779267 
L 239.195455 125.14235 
L 240.631186 124.8992 
L 242.066917 123.649942 
L 243.502648 122.551608 
L 244.938379 122.717236 
L 246.374111 124.65571 
L 247.809842 128.053297 
L 249.245573 131.96062 
L 250.681304 135.334132 
L 252.117036 137.594887 
L 253.552767 138.773595 
L 254.988498 139.259021 
L 257.85996 139.81677 
L 259.295692 140.346644 
L 260.731423 141.127464 
L 265.038617 144.12634 
L 266.474348 144.578755 
L 267.910079 144.795435 
L 269.34581 145.299924 
L 270.781542 146.480964 
L 276.524466 153.34201 
L 279.395929 156.580917 
L 280.83166 157.812935 
L 282.267391 158.501112 
L 283.703123 158.995408 
L 285.138854 160.036742 
L 286.574585 162.051453 
L 288.010316 164.514828 
L 289.446047 166.172875 
L 290.881779 166.094154 
L 292.31751 164.52593 
L 293.753241 162.712505 
L 295.188972 161.889963 
L 296.624704 162.304875 
L 298.060435 163.12307 
L 299.496166 163.438991 
L 300.931897 163.384375 
L 302.367628 164.012358 
L 303.80336 166.066036 
L 306.674822 172.319614 
L 308.110553 174.853294 
L 309.546285 176.581124 
L 310.982016 177.414719 
L 312.417747 177.37014 
L 315.289209 176.467904 
L 316.724941 176.305305 
L 318.160672 175.973675 
L 321.032134 174.620417 
L 322.467866 175.114458 
L 323.903597 177.360698 
L 326.775059 184.633924 
L 328.210791 187.415812 
L 329.646522 188.945327 
L 331.082253 189.378986 
L 333.953715 188.993324 
L 335.389447 189.605048 
L 338.260909 192.380711 
L 339.69664 193.144076 
L 341.132372 193.580612 
L 342.568103 194.452805 
L 345.439565 197.227729 
L 346.875296 197.726295 
L 349.746759 197.553873 
L 352.618221 198.386612 
L 354.053953 198.205023 
L 355.489684 197.262116 
L 356.925415 196.112635 
L 358.361146 195.636196 
L 359.796877 196.261344 
L 361.232609 197.624135 
L 369.846996 206.847809 
L 371.282727 209.297798 
L 372.718458 212.17799 
L 374.15419 214.441717 
L 375.589921 215.28311 
L 377.025652 214.715121 
L 378.461383 213.244738 
L 381.332846 209.555834 
L 382.768577 208.117869 
L 384.204308 207.417034 
L 385.64004 207.779699 
L 387.075771 209.374875 
L 388.511502 212.033707 
L 391.382964 218.183191 
L 392.818696 219.846618 
L 394.254427 219.506798 
L 397.125889 215.562502 
L 398.561621 215.077274 
L 399.997352 216.290929 
L 402.868814 220.069443 
L 407.176008 225.058079 
L 408.611739 226.16115 
L 410.04747 226.361926 
L 411.483202 225.684088 
L 412.918933 224.545722 
L 414.354664 223.570717 
L 417.226126 222.712568 
L 418.661858 221.71835 
L 420.097589 220.041186 
L 421.53332 218.583889 
L 422.969051 218.371976 
L 424.404783 219.54346 
L 425.840514 221.306552 
L 427.276245 222.799235 
L 433.01917 226.902292 
L 434.454901 227.755502 
L 435.890632 228.264038 
L 437.326364 228.38412 
L 438.762095 228.229109 
L 440.197826 228.236594 
L 441.633557 229.024824 
L 443.069289 230.988991 
L 444.50502 234.102173 
L 448.812213 245.976323 
L 450.247945 248.854708 
L 451.683676 250.402157 
L 453.119407 250.464668 
L 454.555138 249.206977 
L 457.426601 245.015643 
L 458.862332 243.580944 
L 461.733794 242.013153 
L 463.169526 240.141452 
L 466.040988 234.684656 
L 467.476719 233.587492 
L 468.912451 234.379198 
L 470.348182 236.412647 
L 471.783913 238.788522 
L 473.219644 240.903849 
L 474.655375 242.47516 
L 476.091107 243.51606 
L 478.962569 245.097662 
L 480.3983 245.621358 
L 483.269763 245.795584 
L 484.705494 247.102488 
L 486.141225 249.878801 
L 487.576957 252.985178 
L 489.012688 254.771155 
L 490.448419 254.398225 
L 491.88415 252.210766 
L 493.319881 249.26014 
L 494.755613 246.710412 
L 496.191344 245.296891 
L 497.627075 244.976641 
L 499.062806 245.211613 
L 500.498538 245.646674 
L 501.934269 246.280861 
L 504.805731 247.865436 
L 506.241462 248.868894 
L 507.677194 250.645536 
L 509.112925 253.441992 
L 510.548656 256.629611 
L 511.984387 258.898593 
L 513.420119 258.984222 
L 514.85585 256.526029 
L 517.727312 248.779382 
L 519.163043 246.74198 
L 520.598775 246.900576 
L 522.034506 249.117311 
L 523.470237 252.874346 
L 524.905968 257.197654 
L 526.3417 260.857452 
L 527.777431 262.923089 
L 529.213162 263.138113 
L 530.648893 261.88131 
L 533.520356 258.151051 
L 534.956087 257.080875 
L 536.391818 256.685207 
L 536.391818 256.685207 
" clip-path="url(#p8f960f8a4f)" style="fill: none; stroke: #8172b3; stroke-width: 2; stroke-linecap: round"/>
   </g>
   <g id="patch_3">
    <path d="M 85.644 298.476 
L 85.644 18.144 
" style="fill: none; stroke: #000000; stroke-width: 1.2; stroke-linejoin: miter; stroke-linecap: square"/>
   </g>
   <g id="patch_4">
    <path d="M 557.856 298.476 
L 557.856 18.144 
" style="fill: none; stroke: #000000; stroke-width: 1.2; stroke-linejoin: miter; stroke-linecap: square"/>
   </g>
   <g id="patch_5">
    <path d="M 85.644 298.476 
L 557.856 298.476 
" style="fill: none; stroke: #000000; stroke-width: 1.2; stroke-linejoin: miter; stroke-linecap: square"/>
   </g>
   <g id="patch_6">
    <path d="M 85.644 18.144 
L 557.856 18.144 
" style="fill: none; stroke: #000000; stroke-width: 1.2; stroke-linejoin: miter; stroke-linecap: square"/>
   </g>
   <g id="legend_1">
    <g id="patch_7">
     <path d="M 427.72725 114.05025 
L 549.456 114.05025 
Q 551.856 114.05025 551.856 111.65025 
L 551.856 26.544 
Q 551.856 24.144 549.456 24.144 
L 427.72725 24.144 
Q 425.32725 24.144 425.32725 26.544 
L 425.32725 111.65025 
Q 425.32725 114.05025 427.72725 114.05025 
z
" style="fill: #ffffff; stroke: #000000; stroke-linejoin: miter"/>
    </g>
    <g id="line2d_6">
     <path d="M 430.12725 33.479625 
L 442.12725 33.479625 
L 454.12725 33.479625 
" style="fill: none; stroke: #4c72b0; stroke-opacity: 0; stroke-width: 1.5; stroke-linecap: round"/>
    </g>
    <g id="text_18">
     <!-- Dayhoff -->
     <g style="fill: #262626" transform="translate(463.72725 37.679625) scale(0.12 -0.12)">
      <defs>
       <path id="Arial-BoldMT-44" d="M 463 4581 
L 2153 4581 
Q 2725 4581 3025 4494 
Q 3428 4375 3715 4072 
Q 4003 3769 4153 3330 
Q 4303 2891 4303 2247 
Q 4303 1681 4163 1272 
Q 3991 772 3672 463 
Q 3431 228 3022 97 
Q 2716 0 2203 0 
L 463 0 
L 463 4581 
z
M 1388 3806 
L 1388 772 
L 2078 772 
Q 2466 772 2638 816 
Q 2863 872 3011 1006 
Q 3159 1141 3253 1448 
Q 3347 1756 3347 2288 
Q 3347 2819 3253 3103 
Q 3159 3388 2990 3547 
Q 2822 3706 2563 3763 
Q 2369 3806 1803 3806 
L 1388 3806 
z
" transform="scale(0.015625)"/>
       <path id="Arial-BoldMT-61" d="M 1116 2306 
L 319 2450 
Q 453 2931 781 3162 
Q 1109 3394 1756 3394 
Q 2344 3394 2631 3255 
Q 2919 3116 3036 2902 
Q 3153 2688 3153 2116 
L 3144 1091 
Q 3144 653 3186 445 
Q 3228 238 3344 0 
L 2475 0 
Q 2441 88 2391 259 
Q 2369 338 2359 363 
Q 2134 144 1878 34 
Q 1622 -75 1331 -75 
Q 819 -75 523 203 
Q 228 481 228 906 
Q 228 1188 362 1408 
Q 497 1628 739 1745 
Q 981 1863 1438 1950 
Q 2053 2066 2291 2166 
L 2291 2253 
Q 2291 2506 2166 2614 
Q 2041 2722 1694 2722 
Q 1459 2722 1328 2630 
Q 1197 2538 1116 2306 
z
M 2291 1594 
Q 2122 1538 1756 1459 
Q 1391 1381 1278 1306 
Q 1106 1184 1106 997 
Q 1106 813 1243 678 
Q 1381 544 1594 544 
Q 1831 544 2047 700 
Q 2206 819 2256 991 
Q 2291 1103 2291 1419 
L 2291 1594 
z
" transform="scale(0.015625)"/>
       <path id="Arial-BoldMT-79" d="M 44 3319 
L 978 3319 
L 1772 963 
L 2547 3319 
L 3456 3319 
L 2284 125 
L 2075 -453 
Q 1959 -744 1854 -897 
Q 1750 -1050 1614 -1145 
Q 1478 -1241 1279 -1294 
Q 1081 -1347 831 -1347 
Q 578 -1347 334 -1294 
L 256 -606 
Q 463 -647 628 -647 
Q 934 -647 1081 -467 
Q 1228 -288 1306 -9 
L 44 3319 
z
" transform="scale(0.015625)"/>
       <path id="Arial-BoldMT-66" d="M 75 3319 
L 563 3319 
L 563 3569 
Q 563 3988 652 4194 
Q 741 4400 980 4529 
Q 1219 4659 1584 4659 
Q 1959 4659 2319 4547 
L 2200 3934 
Q 1991 3984 1797 3984 
Q 1606 3984 1523 3895 
Q 1441 3806 1441 3553 
L 1441 3319 
L 2097 3319 
L 2097 2628 
L 1441 2628 
L 1441 0 
L 563 0 
L 563 2628 
L 75 2628 
L 75 3319 
z
" transform="scale(0.015625)"/>
      </defs>
      <use xlink:href="#Arial-BoldMT-44"/>
      <use xlink:href="#Arial-BoldMT-61" transform="translate(72.216797 0)"/>
      <use xlink:href="#Arial-BoldMT-79" transform="translate(127.832031 0)"/>
      <use xlink:href="#Arial-BoldMT-68" transform="translate(183.447266 0)"/>
      <use xlink:href="#Arial-BoldMT-6f" transform="translate(244.53125 0)"/>
      <use xlink:href="#Arial-BoldMT-66" transform="translate(305.615234 0)"/>
      <use xlink:href="#Arial-BoldMT-66" transform="translate(338.916016 0)"/>
     </g>
    </g>
    <g id="line2d_7">
     <path d="M 430.12725 50.740875 
L 442.12725 50.740875 
L 454.12725 50.740875 
" style="fill: none; stroke: #dd8452; stroke-opacity: 0.4; stroke-width: 1.5; stroke-linecap: round"/>
    </g>
    <g id="text_19">
     <!-- Train (raw) -->
     <g style="fill: #262626" transform="translate(463.72725 54.940875) scale(0.12 -0.12)">
      <defs>
       <path id="Arial-BoldMT-54" d="M 1497 0 
L 1497 3806 
L 138 3806 
L 138 4581 
L 3778 4581 
L 3778 3806 
L 2422 3806 
L 2422 0 
L 1497 0 
z
" transform="scale(0.015625)"/>
       <path id="Arial-BoldMT-72" d="M 1300 0 
L 422 0 
L 422 3319 
L 1238 3319 
L 1238 2847 
Q 1447 3181 1614 3287 
Q 1781 3394 1994 3394 
Q 2294 3394 2572 3228 
L 2300 2463 
Q 2078 2606 1888 2606 
Q 1703 2606 1575 2504 
Q 1447 2403 1373 2137 
Q 1300 1872 1300 1025 
L 1300 0 
z
" transform="scale(0.015625)"/>
       <path id="Arial-BoldMT-69" d="M 459 3769 
L 459 4581 
L 1338 4581 
L 1338 3769 
L 459 3769 
z
M 459 0 
L 459 3319 
L 1338 3319 
L 1338 0 
L 459 0 
z
" transform="scale(0.015625)"/>
       <path id="Arial-BoldMT-6e" d="M 3478 0 
L 2600 0 
L 2600 1694 
Q 2600 2231 2544 2389 
Q 2488 2547 2361 2634 
Q 2234 2722 2056 2722 
Q 1828 2722 1647 2597 
Q 1466 2472 1398 2265 
Q 1331 2059 1331 1503 
L 1331 0 
L 453 0 
L 453 3319 
L 1269 3319 
L 1269 2831 
Q 1703 3394 2363 3394 
Q 2653 3394 2893 3289 
Q 3134 3184 3257 3021 
Q 3381 2859 3429 2653 
Q 3478 2447 3478 2063 
L 3478 0 
z
" transform="scale(0.015625)"/>
       <path id="Arial-BoldMT-28" d="M 1916 -1347 
L 1313 -1347 
Q 834 -625 584 153 
Q 334 931 334 1659 
Q 334 2563 644 3369 
Q 913 4069 1325 4659 
L 1925 4659 
Q 1497 3713 1336 3048 
Q 1175 2384 1175 1641 
Q 1175 1128 1270 590 
Q 1366 53 1531 -431 
Q 1641 -750 1916 -1347 
z
" transform="scale(0.015625)"/>
       <path id="Arial-BoldMT-77" d="M 1078 0 
L 28 3319 
L 881 3319 
L 1503 1144 
L 2075 3319 
L 2922 3319 
L 3475 1144 
L 4109 3319 
L 4975 3319 
L 3909 0 
L 3066 0 
L 2494 2134 
L 1931 0 
L 1078 0 
z
" transform="scale(0.015625)"/>
       <path id="Arial-BoldMT-29" d="M 216 -1347 
Q 475 -791 581 -494 
Q 688 -197 778 190 
Q 869 578 912 926 
Q 956 1275 956 1641 
Q 956 2384 797 3048 
Q 638 3713 209 4659 
L 806 4659 
Q 1278 3988 1539 3234 
Q 1800 2481 1800 1706 
Q 1800 1053 1594 306 
Q 1359 -531 822 -1347 
L 216 -1347 
z
" transform="scale(0.015625)"/>
      </defs>
      <use xlink:href="#Arial-BoldMT-54"/>
      <use xlink:href="#Arial-BoldMT-72" transform="translate(55.583984 0)"/>
      <use xlink:href="#Arial-BoldMT-61" transform="translate(94.5 0)"/>
      <use xlink:href="#Arial-BoldMT-69" transform="translate(150.115234 0)"/>
      <use xlink:href="#Arial-BoldMT-6e" transform="translate(177.898438 0)"/>
      <use xlink:href="#Arial-BoldMT-20" transform="translate(238.982422 0)"/>
      <use xlink:href="#Arial-BoldMT-28" transform="translate(266.765625 0)"/>
      <use xlink:href="#Arial-BoldMT-72" transform="translate(300.066406 0)"/>
      <use xlink:href="#Arial-BoldMT-61" transform="translate(338.982422 0)"/>
      <use xlink:href="#Arial-BoldMT-77" transform="translate(394.597656 0)"/>
      <use xlink:href="#Arial-BoldMT-29" transform="translate(472.380859 0)"/>
     </g>
    </g>
    <g id="line2d_8">
     <path d="M 430.12725 68.002125 
L 442.12725 68.002125 
L 454.12725 68.002125 
" style="fill: none; stroke: #55a868; stroke-opacity: 0.4; stroke-width: 1.5; stroke-linecap: round"/>
    </g>
    <g id="text_20">
     <!-- Val (raw) -->
     <g style="fill: #262626" transform="translate(463.72725 72.202125) scale(0.12 -0.12)">
      <defs>
       <path id="Arial-BoldMT-56" d="M 1634 0 
L -3 4581 
L 1000 4581 
L 2159 1191 
L 3281 4581 
L 4263 4581 
L 2622 0 
L 1634 0 
z
" transform="scale(0.015625)"/>
       <path id="Arial-BoldMT-6c" d="M 459 0 
L 459 4581 
L 1338 4581 
L 1338 0 
L 459 0 
z
" transform="scale(0.015625)"/>
      </defs>
      <use xlink:href="#Arial-BoldMT-56"/>
      <use xlink:href="#Arial-BoldMT-61" transform="translate(61.199219 0)"/>
      <use xlink:href="#Arial-BoldMT-6c" transform="translate(116.814453 0)"/>
      <use xlink:href="#Arial-BoldMT-20" transform="translate(144.597656 0)"/>
      <use xlink:href="#Arial-BoldMT-28" transform="translate(172.380859 0)"/>
      <use xlink:href="#Arial-BoldMT-72" transform="translate(205.681641 0)"/>
      <use xlink:href="#Arial-BoldMT-61" transform="translate(244.597656 0)"/>
      <use xlink:href="#Arial-BoldMT-77" transform="translate(300.212891 0)"/>
      <use xlink:href="#Arial-BoldMT-29" transform="translate(377.996094 0)"/>
     </g>
    </g>
    <g id="line2d_9">
     <path d="M 430.12725 85.263375 
L 442.12725 85.263375 
L 454.12725 85.263375 
" style="fill: none; stroke: #c44e52; stroke-width: 2; stroke-linecap: round"/>
    </g>
    <g id="text_21">
     <!-- Train (smooth) -->
     <g style="fill: #262626" transform="translate(463.72725 89.463375) scale(0.12 -0.12)">
      <defs>
       <path id="Arial-BoldMT-6d" d="M 394 3319 
L 1203 3319 
L 1203 2866 
Q 1638 3394 2238 3394 
Q 2556 3394 2790 3262 
Q 3025 3131 3175 2866 
Q 3394 3131 3647 3262 
Q 3900 3394 4188 3394 
Q 4553 3394 4806 3245 
Q 5059 3097 5184 2809 
Q 5275 2597 5275 2122 
L 5275 0 
L 4397 0 
L 4397 1897 
Q 4397 2391 4306 2534 
Q 4184 2722 3931 2722 
Q 3747 2722 3584 2609 
Q 3422 2497 3350 2280 
Q 3278 2063 3278 1594 
L 3278 0 
L 2400 0 
L 2400 1819 
Q 2400 2303 2353 2443 
Q 2306 2584 2207 2653 
Q 2109 2722 1941 2722 
Q 1738 2722 1575 2612 
Q 1413 2503 1342 2297 
Q 1272 2091 1272 1613 
L 1272 0 
L 394 0 
L 394 3319 
z
" transform="scale(0.015625)"/>
       <path id="Arial-BoldMT-74" d="M 1981 3319 
L 1981 2619 
L 1381 2619 
L 1381 1281 
Q 1381 875 1398 808 
Q 1416 741 1477 697 
Q 1538 653 1625 653 
Q 1747 653 1978 738 
L 2053 56 
Q 1747 -75 1359 -75 
Q 1122 -75 931 4 
Q 741 84 652 211 
Q 563 338 528 553 
Q 500 706 500 1172 
L 500 2619 
L 97 2619 
L 97 3319 
L 500 3319 
L 500 3978 
L 1381 4491 
L 1381 3319 
L 1981 3319 
z
" transform="scale(0.015625)"/>
      </defs>
      <use xlink:href="#Arial-BoldMT-54"/>
      <use xlink:href="#Arial-BoldMT-72" transform="translate(55.583984 0)"/>
      <use xlink:href="#Arial-BoldMT-61" transform="translate(94.5 0)"/>
      <use xlink:href="#Arial-BoldMT-69" transform="translate(150.115234 0)"/>
      <use xlink:href="#Arial-BoldMT-6e" transform="translate(177.898438 0)"/>
      <use xlink:href="#Arial-BoldMT-20" transform="translate(238.982422 0)"/>
      <use xlink:href="#Arial-BoldMT-28" transform="translate(266.765625 0)"/>
      <use xlink:href="#Arial-BoldMT-73" transform="translate(300.066406 0)"/>
      <use xlink:href="#Arial-BoldMT-6d" transform="translate(355.681641 0)"/>
      <use xlink:href="#Arial-BoldMT-6f" transform="translate(444.597656 0)"/>
      <use xlink:href="#Arial-BoldMT-6f" transform="translate(505.681641 0)"/>
      <use xlink:href="#Arial-BoldMT-74" transform="translate(566.765625 0)"/>
      <use xlink:href="#Arial-BoldMT-68" transform="translate(600.066406 0)"/>
      <use xlink:href="#Arial-BoldMT-29" transform="translate(661.150391 0)"/>
     </g>
    </g>
    <g id="line2d_10">
     <path d="M 430.12725 102.524625 
L 442.12725 102.524625 
L 454.12725 102.524625 
" style="fill: none; stroke: #8172b3; stroke-width: 2; stroke-linecap: round"/>
    </g>
    <g id="text_22">
     <!-- Val (smooth) -->
     <g style="fill: #262626" transform="translate(463.72725 106.724625) scale(0.12 -0.12)">
      <use xlink:href="#Arial-BoldMT-56"/>
      <use xlink:href="#Arial-BoldMT-61" transform="translate(61.199219 0)"/>
      <use xlink:href="#Arial-BoldMT-6c" transform="translate(116.814453 0)"/>
      <use xlink:href="#Arial-BoldMT-20" transform="translate(144.597656 0)"/>
      <use xlink:href="#Arial-BoldMT-28" transform="translate(172.380859 0)"/>
      <use xlink:href="#Arial-BoldMT-73" transform="translate(205.681641 0)"/>
      <use xlink:href="#Arial-BoldMT-6d" transform="translate(261.296875 0)"/>
      <use xlink:href="#Arial-BoldMT-6f" transform="translate(350.212891 0)"/>
      <use xlink:href="#Arial-BoldMT-6f" transform="translate(411.296875 0)"/>
      <use xlink:href="#Arial-BoldMT-74" transform="translate(472.380859 0)"/>
      <use xlink:href="#Arial-BoldMT-68" transform="translate(505.681641 0)"/>
      <use xlink:href="#Arial-BoldMT-29" transform="translate(566.765625 0)"/>
     </g>
    </g>
   </g>
  </g>
 </g>
 <defs>
  <clipPath id="p8f960f8a4f">
   <rect x="85.644" y="18.144" width="472.212" height="280.332"/>
  </clipPath>
 </defs>
</svg>
